<svg xmlns="http://www.w3.org/2000/svg" width="95.87" height="131.064" viewBox="0 0 95.87 131.064"><defs><style>.a{fill:#ec3838;}.a,.b,.c{fill-rule:evenodd;}.b{fill:#009ee2;}.c{fill:#0058a2;}</style></defs><g transform="translate(-274.13 -159)"><path class="a" d="M107.935,94.07v36.992H71.529V94.07H60V68.6h0a29.728,29.728,0,0,1,59.454,0h0V94.07Zm-18.2-59.018a17.527,17.527,0,1,1,17.537-17.527A17.532,17.532,0,0,1,89.732,35.053Z" transform="translate(250.536 159.001)"/><path class="b" d="M47.935,94.07v36.992H11.529V94.07H0V68.6H0a29.728,29.728,0,0,1,59.454,0h0V94.07Zm-18.2-59.018A17.527,17.527,0,1,1,47.269,17.526,17.532,17.532,0,0,1,29.732,35.053Z" transform="translate(274.13 159.001)"/><path class="c" d="M60,123.428V97.958h0a29.655,29.655,0,0,1,11.524-23.3,29.653,29.653,0,0,1,11.524,23.3h0v25.47H71.529V160.42h0V123.428Z" transform="translate(250.536 129.644)"/></g></svg>